{
  "accessors": [
    {
      "bufferView": 2,
      "componentType": 5126,
      "count": 1348,
      "max": [
        3.8831779956817627,
        8.329476356506348,
        8.460367202758789
      ],
      "min": [
        -14.188949584960938,
        -8.327474594116211,
        -7.3994951248168945
      ],
      "type": "VEC3"
    },
    {
      "bufferView": 2,
      "byteOffset": 16176,
      "componentType": 5126,
      "count": 1348,
      "max": [
        0.9999963045120239,
        0.9971150159835815,
        0.9998630881309509
      ],
      "min": [
        -0.9999867677688599,
        -0.9985814094543457,
        -0.9999831914901733
      ],
      "type": "VEC3"
    },
    {
      "bufferView": 3,
      "componentType": 5126,
      "count": 1348,
      "max": [
        0.9999988675117493,
        0.9997850656509399,
        0.9985273480415344,
        1.0
      ],
      "min": [
        -0.9999998807907104,
        -0.9999166131019592,
        -0.9997907876968384,
        1.0
      ],
      "type": "VEC4"
    },
    {
      "bufferView": 1,
      "componentType": 5126,
      "count": 1348,
      "max": [
        0.9972307085990906,
        0.9983199238777161
      ],
      "min": [
        0.001590489991940558,
        0.0015893570380285382
      ],
      "type": "VEC2"
    },
    {
      "bufferView": 0,
      "componentType": 5125,
      "count": 6180,
      "type": "SCALAR"
    }
  ],
  "asset": {
    "extras": {
      "author": "RaynaudL (https://sketchfab.com/fts_ltx)",
      "license": "CC-BY-4.0 (http://creativecommons.org/licenses/by/4.0/)",
      "source": "https://sketchfab.com/3d-models/remake-net-basket-7f9aacd42aa84224b5f92f4ad3ea7511",
      "title": "[REMAKE] - Net basket"
    },
    "generator": "Sketchfab-15.5.0",
    "version": "2.0"
  },
  "bufferViews": [
    {
      "buffer": 0,
      "byteLength": 24720,
      "name": "floatBufferViews",
      "target": 34963
    },
    {
      "buffer": 0,
      "byteLength": 10784,
      "byteOffset": 24720,
      "byteStride": 8,
      "name": "floatBufferViews",
      "target": 34962
    },
    {
      "buffer": 0,
      "byteLength": 32352,
      "byteOffset": 35504,
      "byteStride": 12,
      "name": "floatBufferViews",
      "target": 34962
    },
    {
      "buffer": 0,
      "byteLength": 21568,
      "byteOffset": 67856,
      "byteStride": 16,
      "name": "floatBufferViews",
      "target": 34962
    }
  ],
  "buffers": [
    {
      "byteLength": 89424,
      "uri": "basket.bin"
    }
  ],
  "extensionsUsed": [
    "KHR_materials_specular"
  ],
  "images": [
    {
      "uri": "textures/t_base_color_baseColor.jpeg"
    },
    {
      "uri": "textures/t_base_color_normal.png"
    }
  ],
  "materials": [
    {
      "extensions": {
        "KHR_materials_specular": {
          "specularColorFactor": [
            1.0,
            1.0,
            1.0
          ],
          "specularFactor": 0.0
        }
      },
      "name": "t_base_color",
      "normalTexture": {
        "index": 1
      },
      "pbrMetallicRoughness": {
        "baseColorTexture": {
          "index": 0
        },
        "metallicFactor": 0.0,
        "roughnessFactor": 0.0
      }
    }
  ],
  "meshes": [
    {
      "name": "t_base_color-material",
      "primitives": [
        {
          "attributes": {
            "NORMAL": 1,
            "POSITION": 0,
            "TANGENT": 2,
            "TEXCOORD_0": 3
          },
          "indices": 4,
          "material": 0,
          "mode": 4
        }
      ]
    }
  ],
  "nodes": [
    {
      "children": [
        1
      ],
      "matrix": [
        1.0,
        0.0,
        0.0,
        0.0,
        0.0,
        2.220446049250313e-16,
        -1.0,
        0.0,
        0.0,
        1.0,
        2.220446049250313e-16,
        0.0,
        0.0,
        0.0,
        0.0,
        1.0
      ],
      "name": "Sketchfab_model"
    },
    {
      "children": [
        2
      ],
      "name": "Collada visual scene group"
    },
    {
      "children": [
        3
      ],
      "matrix": [
        1.94707e-07,
        0.0,
        1.0,
        0.0,
        0.992552,
        -0.1218225,
        -1.93257e-07,
        0.0,
        0.1218225,
        0.992552,
        -2.37197e-08,
        0.0,
        -0.0146351,
        -0.3815647,
        14.32483,
        1.0
      ],
      "name": "t_lp"
    },
    {
      "mesh": 0,
      "name": "t_base_color-material"
    }
  ],
  "samplers": [
    {
      "magFilter": 9729,
      "minFilter": 9987,
      "wrapS": 10497,
      "wrapT": 10497
    }
  ],
  "scene": 0,
  "scenes": [
    {
      "name": "Sketchfab_Scene",
      "nodes": [
        0
      ]
    }
  ],
  "textures": [
    {
      "sampler": 0,
      "source": 0
    },
    {
      "sampler": 0,
      "source": 1
    }
  ]
}
