{
  "accessors": [
    {
      "bufferView": 2,
      "componentType": 5126,
      "count": 65532,
      "max": [
        -2.061079978942871,
        0.18693000078201294,
        2.2768781185150146
      ],
      "min": [
        -4.288140773773193,
        -0.19059300422668457,
        1.891577959060669
      ],
      "type": "VEC3"
    },
    {
      "bufferView": 2,
      "byteOffset": 786384,
      "componentType": 5126,
      "count": 65532,
      "max": [
        0.9998499155044556,
        0.9784995317459106,
        0.9969822764396667
      ],
      "min": [
        -0.9998487830162048,
        -0.9998499751091003,
        -0.9969822764396667
      ],
      "type": "VEC3"
    },
    {
      "bufferView": 1,
      "componentType": 5126,
      "count": 65532,
      "max": [
        0.0,
        0.0
      ],
      "min": [
        0.0,
        0.0
      ],
      "type": "VEC2"
    },
    {
      "bufferView": 0,
      "componentType": 5125,
      "count": 98298,
      "type": "SCALAR"
    },
    {
      "bufferView": 2,
      "byteOffset": 1572768,
      "componentType": 5126,
      "count": 65532,
      "max": [
        -2.061079978942871,
        0.19059200584888458,
        2.2768781185150146
      ],
      "min": [
        -4.251673221588135,
        -0.19059300422668457,
        1.891577959060669
      ],
      "type": "VEC3"
    },
    {
      "bufferView": 2,
      "byteOffset": 2359152,
      "componentType": 5126,
      "count": 65532,
      "max": [
        0.9998499751091003,
        0.9998499751091003,
        0.9969803690910339
      ],
      "min": [
        -0.18300668895244598,
        -0.9998499751091003,
        -0.9969822764396667
      ],
      "type": "VEC3"
    },
    {
      "bufferView": 1,
      "byteOffset": 524256,
      "componentType": 5126,
      "count": 65532,
      "max": [
        0.0,
        0.0
      ],
      "min": [
        0.0,
        0.0
      ],
      "type": "VEC2"
    },
    {
      "bufferView": 0,
      "byteOffset": 393192,
      "componentType": 5125,
      "count": 98298,
      "type": "SCALAR"
    },
    {
      "bufferView": 2,
      "byteOffset": 3145536,
      "componentType": 5126,
      "count": 65532,
      "max": [
        -4.061079978942871,
        0.19059200584888458,
        2.2768781185150146
      ],
      "min": [
        -4.324257850646973,
        -0.19059300422668457,
        1.891577959060669
      ],
      "type": "VEC3"
    },
    {
      "bufferView": 2,
      "byteOffset": 3931920,
      "componentType": 5126,
      "count": 65532,
      "max": [
        0.9998499751091003,
        0.9998499751091003,
        0.9969865679740906
      ],
      "min": [
        -0.36910563707351685,
        -0.9998499751091003,
        -0.9969822764396667
      ],
      "type": "VEC3"
    },
    {
      "bufferView": 1,
      "byteOffset": 1048512,
      "componentType": 5126,
      "count": 65532,
      "max": [
        0.0,
        0.0
      ],
      "min": [
        0.0,
        0.0
      ],
      "type": "VEC2"
    },
    {
      "bufferView": 0,
      "byteOffset": 786384,
      "componentType": 5125,
      "count": 98298,
      "type": "SCALAR"
    },
    {
      "bufferView": 2,
      "byteOffset": 4718304,
      "componentType": 5126,
      "count": 57356,
      "max": [
        -4.251673221588135,
        0.19059200584888458,
        2.2768781185150146
      ],
      "min": [
        -4.44226598739624,
        -0.18693099915981293,
        1.891577959060669
      ],
      "type": "VEC3"
    },
    {
      "bufferView": 2,
      "byteOffset": 5406576,
      "componentType": 5126,
      "count": 57356,
      "max": [
        0.023299546912312508,
        0.9998499751091003,
        0.9969852566719055
      ],
      "min": [
        -0.9998512268066406,
        -0.9782418608665466,
        -0.9969833493232727
      ],
      "type": "VEC3"
    },
    {
      "bufferView": 1,
      "byteOffset": 1572768,
      "componentType": 5126,
      "count": 57356,
      "max": [
        0.0,
        0.0
      ],
      "min": [
        0.0,
        0.0
      ],
      "type": "VEC2"
    },
    {
      "bufferView": 0,
      "byteOffset": 1179576,
      "componentType": 5125,
      "count": 86034,
      "type": "SCALAR"
    },
    {
      "bufferView": 2,
      "byteOffset": 6094848,
      "componentType": 5126,
      "count": 9903,
      "max": [
        4.877798080444336,
        0.2024659961462021,
        2.3961191177368164
      ],
      "min": [
        -1.8960880041122437,
        -0.19426999986171722,
        1.0389649868011475
      ],
      "type": "VEC3"
    },
    {
      "bufferView": 2,
      "byteOffset": 6213684,
      "componentType": 5126,
      "count": 9903,
      "max": [
        0.9987391829490662,
        1.0,
        0.9999837875366211
      ],
      "min": [
        -0.9480917453765869,
        -1.0,
        -0.9999997615814209
      ],
      "type": "VEC3"
    },
    {
      "bufferView": 1,
      "byteOffset": 2031616,
      "componentType": 5126,
      "count": 9903,
      "max": [
        1.0,
        0.940883994102478
      ],
      "min": [
        0.0010839999886229634,
        0.0
      ],
      "type": "VEC2"
    },
    {
      "bufferView": 0,
      "byteOffset": 1523712,
      "componentType": 5125,
      "count": 55296,
      "type": "SCALAR"
    },
    {
      "bufferView": 2,
      "byteOffset": 6332520,
      "componentType": 5126,
      "count": 12190,
      "max": [
        -1.6733119487762451,
        0.17763499915599823,
        2.3879590034484863
      ],
      "min": [
        -5.016485214233398,
        -0.16943900287151337,
        1.693647027015686
      ],
      "type": "VEC3"
    },
    {
      "bufferView": 2,
      "byteOffset": 6478800,
      "componentType": 5126,
      "count": 12190,
      "max": [
        0.431505024433136,
        1.0,
        1.0
      ],
      "min": [
        -0.9995721578598022,
        -1.0,
        -0.9999998807907104
      ],
      "type": "VEC3"
    },
    {
      "bufferView": 1,
      "byteOffset": 2110840,
      "componentType": 5126,
      "count": 12190,
      "max": [
        0.9634580016136169,
        1.0
      ],
      "min": [
        0.15525999665260315,
        0.0
      ],
      "type": "VEC2"
    },
    {
      "bufferView": 0,
      "byteOffset": 1744896,
      "componentType": 5125,
      "count": 69888,
      "type": "SCALAR"
    }
  ],
  "asset": {
    "extras": {
      "author": "TheSpacePunk (https://sketchfab.com/TheSpacePunk)",
      "license": "CC-BY-4.0 (http://creativecommons.org/licenses/by/4.0/)",
      "source": "https://sketchfab.com/3d-models/kitchen-knife-4c75aae7dfa74b919b61a321242de7f4",
      "title": "Kitchen Knife"
    },
    "generator": "Sketchfab-12.68.0",
    "version": "2.0"
  },
  "bufferViews": [
    {
      "buffer": 0,
      "byteLength": 2024448,
      "name": "floatBufferViews",
      "target": 34963
    },
    {
      "buffer": 0,
      "byteLength": 2208360,
      "byteOffset": 2024448,
      "byteStride": 8,
      "name": "floatBufferViews",
      "target": 34962
    },
    {
      "buffer": 0,
      "byteLength": 6625080,
      "byteOffset": 4232808,
      "byteStride": 12,
      "name": "floatBufferViews",
      "target": 34962
    }
  ],
  "buffers": [
    {
      "byteLength": 10857888,
      "uri": "knife2.bin"
    }
  ],
  "extensionsUsed": [
    "KHR_materials_clearcoat"
  ],
  "images": [
    {
      "uri": "../images/Plastique_baseColor.png"
    }
  ],
  "materials": [
    {
      "doubleSided": true,
      "name": "Metal",
      "pbrMetallicRoughness": {
        "baseColorFactor": [
          0.64,
          0.64,
          0.64,
          1.0
        ],
        "roughnessFactor": 0.06111106629999996
      }
    },
    {
      "doubleSided": true,
      "extensions": {
        "KHR_materials_clearcoat": {
          "clearcoatFactor": 1.0,
          "clearcoatRoughnessFactor": 0.3414046569
        }
      },
      "name": "Plastique",
      "pbrMetallicRoughness": {
        "baseColorTexture": {
          "index": 0
        },
        "metallicFactor": 0.0,
        "roughnessFactor": 0.0
      }
    }
  ],
  "meshes": [
    {
      "name": "Object_0",
      "primitives": [
        {
          "attributes": {
            "NORMAL": 1,
            "POSITION": 0,
            "TEXCOORD_0": 2
          },
          "indices": 3,
          "material": 0,
          "mode": 4
        }
      ]
    },
    {
      "name": "Object_1",
      "primitives": [
        {
          "attributes": {
            "NORMAL": 5,
            "POSITION": 4,
            "TEXCOORD_0": 6
          },
          "indices": 7,
          "material": 0,
          "mode": 4
        }
      ]
    },
    {
      "name": "Object_2",
      "primitives": [
        {
          "attributes": {
            "NORMAL": 9,
            "POSITION": 8,
            "TEXCOORD_0": 10
          },
          "indices": 11,
          "material": 0,
          "mode": 4
        }
      ]
    },
    {
      "name": "Object_3",
      "primitives": [
        {
          "attributes": {
            "NORMAL": 13,
            "POSITION": 12,
            "TEXCOORD_0": 14
          },
          "indices": 15,
          "material": 0,
          "mode": 4
        }
      ]
    },
    {
      "name": "Object_4",
      "primitives": [
        {
          "attributes": {
            "NORMAL": 17,
            "POSITION": 16,
            "TEXCOORD_0": 18
          },
          "indices": 19,
          "material": 0,
          "mode": 4
        }
      ]
    },
    {
      "name": "Object_5",
      "primitives": [
        {
          "attributes": {
            "NORMAL": 21,
            "POSITION": 20,
            "TEXCOORD_0": 22
          },
          "indices": 23,
          "material": 1,
          "mode": 4
        }
      ]
    }
  ],
  "nodes": [
    {
      "children": [
        1
      ],
      "matrix": [
        0.047295670956373215,
        0.0,
        0.0,
        0.0,
        0.0,
        1.0501748572172168e-17,
        -0.047295670956373215,
        0.0,
        0.0,
        0.047295670956373215,
        1.0501748572172168e-17,
        0.0,
        0.0,
        0.0,
        0.0,
        1.0
      ],
      "name": "Sketchfab_model"
    },
    {
      "children": [
        2,
        3,
        4,
        5,
        6,
        7
      ],
      "name": "couteau.obj.cleaner.materialmerger.gles"
    },
    {
      "mesh": 0,
      "name": "Object_2"
    },
    {
      "mesh": 1,
      "name": "Object_3"
    },
    {
      "mesh": 2,
      "name": "Object_4"
    },
    {
      "mesh": 3,
      "name": "Object_5"
    },
    {
      "mesh": 4,
      "name": "Object_6"
    },
    {
      "mesh": 5,
      "name": "Object_7"
    }
  ],
  "samplers": [
    {
      "magFilter": 9729,
      "minFilter": 9987,
      "wrapS": 10497,
      "wrapT": 10497
    }
  ],
  "scene": 0,
  "scenes": [
    {
      "name": "Sketchfab_Scene",
      "nodes": [
        0
      ]
    }
  ],
  "textures": [
    {
      "sampler": 0,
      "source": 0
    }
  ]
}
