{
	"asset":{
		"generator":"Khronos glTF Blender I/O v4.1.62",
		"version":"2.0"
	},
	"scene":0,
	"scenes":[
		{
			"name":"Scene",
			"nodes":[
				2
			]
		}
	],
	"nodes":[
		{
			"mesh":0,
			"name":"Object_2",
			"scale":[
				0.019999999552965164,
				0.019999999552965164,
				0.009999999776482582
			],
			"translation":[
				2,
				-3,
				0
			]
		},
		{
			"children":[
				0
			],
			"name":"MMU_10055.stl.cleaner.materialmerger.gles"
		},
		{
			"children":[
				1
			],
			"name":"Sketchfab_model",
			"rotation":[
				-0.70710688829422,
				0,
				0,
				0.7071066498756409
			]
		}
	],
	"materials":[
		{
			"doubleSided":true,
			"name":"Scene_-_Root",
			"pbrMetallicRoughness":{
				"metallicFactor":0,
				"roughnessFactor":0.6000000238418579
			}
		}
	],
	"meshes":[
		{
			"name":"Object_0",
			"primitives":[
				{
					"attributes":{
						"POSITION":0,
						"NORMAL":1
					},
					"indices":2,
					"material":0
				}
			]
		}
	],
	"accessors":[
		{
			"bufferView":0,
			"componentType":5126,
			"count":10685,
			"max":[
				-72.38136291503906,
				180.77049255371094,
				43
			],
			"min":[
				-133.3813934326172,
				119.77189636230469,
				0
			],
			"type":"VEC3"
		},
		{
			"bufferView":1,
			"componentType":5126,
			"count":10685,
			"type":"VEC3"
		},
		{
			"bufferView":2,
			"componentType":5123,
			"count":59028,
			"type":"SCALAR"
		}
	],
	"bufferViews":[
		{
			"buffer":0,
			"byteLength":128220,
			"byteOffset":0,
			"target":34962
		},
		{
			"buffer":0,
			"byteLength":128220,
			"byteOffset":128220,
			"target":34962
		},
		{
			"buffer":0,
			"byteLength":118056,
			"byteOffset":256440,
			"target":34963
		}
	],
	"buffers":[
		{
			"byteLength":374496,
			"uri":"knob.bin"
		}
	]
}
