{
	"asset":{
		"generator":"Khronos glTF Blender I/O v4.1.62",
		"version":"2.0"
	},
	"scene":0,
	"scenes":[
		{
			"name":"Scene",
			"nodes":[
				24
			]
		}
	],
	"nodes":[
		{
			"mesh":0,
			"name":"Object_4",
			"scale":[
				0.800000011920929,
				0.800000011920929,
				0.800000011920929
			],
			"translation":[
				0,
				0.010690957307815552,
				-0.12930665910243988
			]
		},
		{
			"children":[
				0
			],
			"name":"Circle_2.001"
		},
		{
			"mesh":1,
			"name":"Object_10"
		},
		{
			"mesh":2,
			"name":"Object_9"
		},
		{
			"children":[
				2,
				3
			],
			"name":"Cube.001_4",
			"rotation":[
				0.01021328754723072,
				-0.006394917145371437,
				0.005159115418791771,
				0.9999141097068787
			],
			"scale":[
				0.23071184754371643,
				0.17323972284793854,
				0.23300963640213013
			],
			"translation":[
				0.008103382773697376,
				0.33096253871917725,
				-0.06494418531656265
			]
		},
		{
			"mesh":3,
			"name":"Object_6"
		},
		{
			"mesh":4,
			"name":"Object_7"
		},
		{
			"children":[
				5,
				6
			],
			"name":"Cube_3",
			"rotation":[
				0.01021328754723072,
				-0.006394917145371437,
				0.005159115418791771,
				0.9999141097068787
			],
			"scale":[
				0.23071184754371643,
				0.17323972284793854,
				0.23300963640213013
			],
			"translation":[
				0.008103382773697376,
				0.19784635305404663,
				-0.06494418531656265
			]
		},
		{
			"mesh":5,
			"name":"Object_14"
		},
		{
			"children":[
				8
			],
			"name":"Plane.001_6",
			"rotation":[
				0.014375967904925346,
				-0.0014410614967346191,
				0.003055724548175931,
				0.9998910427093506
			],
			"scale":[
				0.26332226395606995,
				0.2681228816509247,
				0.3797514736652374
			],
			"translation":[
				0.010807650163769722,
				0.12548208236694336,
				-0.18424099683761597
			]
		},
		{
			"mesh":6,
			"name":"Object_16"
		},
		{
			"children":[
				10
			],
			"name":"Plane.002_7",
			"rotation":[
				0.014375967904925346,
				-0.0014410612639039755,
				0.003055724548175931,
				0.9998910427093506
			],
			"scale":[
				0.28420087695121765,
				0.2445361167192459,
				0.5094677209854126
			],
			"translation":[
				0.054793067276477814,
				0.13461413979530334,
				-0.18424099683761597
			]
		},
		{
			"mesh":7,
			"name":"Object_18"
		},
		{
			"children":[
				12
			],
			"name":"Plane.003_8",
			"rotation":[
				0.014507843181490898,
				0.047307632863521576,
				0.002351229079067707,
				0.9987722635269165
			],
			"scale":[
				0.2925252318382263,
				0.26812484860420227,
				0.3792641758918762
			],
			"translation":[
				0.010877346619963646,
				0.13289961218833923,
				-0.18254972994327545
			]
		},
		{
			"mesh":8,
			"name":"Object_20"
		},
		{
			"children":[
				14
			],
			"name":"Plane.004_9",
			"rotation":[
				0.014507848769426346,
				0.04730764776468277,
				0.0023512300103902817,
				0.9987723231315613
			],
			"scale":[
				0.2637943923473358,
				0.2681238353252411,
				0.37926381826400757
			],
			"translation":[
				0.010877346619963646,
				0.14945346117019653,
				-0.18254972994327545
			]
		},
		{
			"mesh":9,
			"name":"Object_22"
		},
		{
			"children":[
				16
			],
			"name":"Plane.005_10",
			"rotation":[
				0.014160575345158577,
				-0.0629943460226059,
				0.0039349510334432125,
				0.9979056715965271
			],
			"scale":[
				0.28510549664497375,
				0.2445341944694519,
				0.5083124041557312
			],
			"translation":[
				0.05465368181467056,
				0.159825399518013,
				-0.1876235157251358
			]
		},
		{
			"mesh":10,
			"name":"Object_24"
		},
		{
			"children":[
				18
			],
			"name":"Plane.006_11",
			"rotation":[
				0.014375969767570496,
				-0.0014410613803192973,
				0.0030557250138372183,
				0.9998910427093506
			],
			"scale":[
				0.2920016646385193,
				0.2681238353252411,
				0.37975165247917175
			],
			"translation":[
				0.010807650163769722,
				0.16097389161586761,
				-0.18424099683761597
			]
		},
		{
			"mesh":11,
			"name":"Object_12"
		},
		{
			"children":[
				20
			],
			"name":"Plane_5",
			"rotation":[
				0.014375967904925346,
				-0.0014410613803192973,
				0.0030557250138372183,
				0.9998910427093506
			],
			"scale":[
				0.3458561301231384,
				0.2681252956390381,
				0.37975209951400757
			],
			"translation":[
				0.008103382773697376,
				0.10797279328107834,
				-0.18424099683761597
			]
		},
		{
			"children":[
				1,
				4,
				7,
				9,
				11,
				13,
				15,
				17,
				19,
				21
			],
			"name":"GLTF_SceneRootNode.001",
			"rotation":[
				0.70710688829422,
				0,
				0,
				0.7071066498756409
			]
		},
		{
			"children":[
				22
			],
			"name":"root.001"
		},
		{
			"children":[
				23
			],
			"name":"Sketchfab_model.001",
			"rotation":[
				-0.70710688829422,
				0,
				0,
				0.7071066498756409
			],
			"translation":[
				0,
				-0.13474538922309875,
				0.14235340058803558
			]
		}
	],
	"materials":[
		{
			"doubleSided":true,
			"name":"Material.001",
			"pbrMetallicRoughness":{
				"baseColorFactor":[
					0.2140350043773651,
					0.2140350043773651,
					0.2140350043773651,
					1
				],
				"metallicFactor":0,
				"roughnessFactor":0.5
			}
		},
		{
			"doubleSided":true,
			"name":"Material.003",
			"pbrMetallicRoughness":{
				"baseColorFactor":[
					0.800000011920929,
					0.48600199818611145,
					0.19654299318790436,
					1
				],
				"metallicFactor":0,
				"roughnessFactor":0.5
			}
		},
		{
			"doubleSided":true,
			"name":"Material.002",
			"pbrMetallicRoughness":{
				"baseColorFactor":[
					0.800000011920929,
					0.800000011920929,
					0.800000011920929,
					1
				],
				"metallicFactor":0,
				"roughnessFactor":0.4000000059604645
			}
		},
		{
			"doubleSided":true,
			"name":"Material.006",
			"pbrMetallicRoughness":{
				"baseColorFactor":[
					0.800000011920929,
					0.5273820161819458,
					0.0024819900281727314,
					1
				],
				"metallicFactor":0,
				"roughnessFactor":0.5
			}
		},
		{
			"doubleSided":true,
			"name":"Material.007",
			"pbrMetallicRoughness":{
				"baseColorFactor":[
					0.012446999549865723,
					0.800000011920929,
					0.015588000416755676,
					1
				],
				"metallicFactor":0,
				"roughnessFactor":0.5
			}
		},
		{
			"doubleSided":true,
			"name":"Material.005",
			"pbrMetallicRoughness":{
				"baseColorFactor":[
					1,
					0,
					0.0008304049842990935,
					1
				],
				"metallicFactor":0,
				"roughnessFactor":0.5
			}
		},
		{
			"doubleSided":true,
			"name":"Material.008",
			"pbrMetallicRoughness":{
				"baseColorFactor":[
					0.03738820180296898,
					0.01765500009059906,
					0.011318299919366837,
					1
				],
				"metallicFactor":0,
				"roughnessFactor":0.5
			}
		}
	],
	"meshes":[
		{
			"name":"Object_0.001",
			"primitives":[
				{
					"attributes":{
						"POSITION":0,
						"NORMAL":1,
						"TEXCOORD_0":2
					},
					"indices":3,
					"material":0
				}
			]
		},
		{
			"name":"Object_4",
			"primitives":[
				{
					"attributes":{
						"POSITION":4,
						"NORMAL":5,
						"TEXCOORD_0":6
					},
					"indices":7,
					"material":1
				}
			]
		},
		{
			"name":"Object_3",
			"primitives":[
				{
					"attributes":{
						"POSITION":8,
						"NORMAL":9,
						"TEXCOORD_0":10
					},
					"indices":11,
					"material":2
				}
			]
		},
		{
			"name":"Object_1",
			"primitives":[
				{
					"attributes":{
						"POSITION":12,
						"NORMAL":13,
						"TEXCOORD_0":14
					},
					"indices":15,
					"material":2
				}
			]
		},
		{
			"name":"Object_2",
			"primitives":[
				{
					"attributes":{
						"POSITION":16,
						"NORMAL":17,
						"TEXCOORD_0":18
					},
					"indices":19,
					"material":1
				}
			]
		},
		{
			"name":"Object_6",
			"primitives":[
				{
					"attributes":{
						"POSITION":20,
						"NORMAL":21,
						"TEXCOORD_0":22
					},
					"indices":23,
					"material":3
				}
			]
		},
		{
			"name":"Object_7",
			"primitives":[
				{
					"attributes":{
						"POSITION":24,
						"NORMAL":25,
						"TEXCOORD_0":26
					},
					"indices":27,
					"material":4
				}
			]
		},
		{
			"name":"Object_8",
			"primitives":[
				{
					"attributes":{
						"POSITION":28,
						"NORMAL":29,
						"TEXCOORD_0":30
					},
					"indices":31,
					"material":5
				}
			]
		},
		{
			"name":"Object_9",
			"primitives":[
				{
					"attributes":{
						"POSITION":32,
						"NORMAL":33,
						"TEXCOORD_0":34
					},
					"indices":23,
					"material":3
				}
			]
		},
		{
			"name":"Object_10",
			"primitives":[
				{
					"attributes":{
						"POSITION":35,
						"NORMAL":36,
						"TEXCOORD_0":37
					},
					"indices":27,
					"material":4
				}
			]
		},
		{
			"name":"Object_11",
			"primitives":[
				{
					"attributes":{
						"POSITION":38,
						"NORMAL":39,
						"TEXCOORD_0":40
					},
					"indices":31,
					"material":6
				}
			]
		},
		{
			"name":"Object_5",
			"primitives":[
				{
					"attributes":{
						"POSITION":41,
						"NORMAL":42,
						"TEXCOORD_0":43
					},
					"indices":31,
					"material":5
				}
			]
		}
	],
	"accessors":[
		{
			"bufferView":0,
			"componentType":5126,
			"count":160,
			"max":[
				1.3054120540618896,
				0.14050139486789703,
				1.3054120540618896
			],
			"min":[
				-1.3054119348526,
				0,
				-1.3054120540618896
			],
			"type":"VEC3"
		},
		{
			"bufferView":1,
			"componentType":5126,
			"count":160,
			"type":"VEC3"
		},
		{
			"bufferView":2,
			"componentType":5126,
			"count":160,
			"type":"VEC2"
		},
		{
			"bufferView":3,
			"componentType":5123,
			"count":282,
			"type":"SCALAR"
		},
		{
			"bufferView":4,
			"componentType":5126,
			"count":2425,
			"max":[
				1.4527024030685425,
				-0.4982069432735443,
				1.1411292552947998
			],
			"min":[
				-1.4529786109924316,
				-1.0417512655258179,
				-2.1247682571411133
			],
			"type":"VEC3"
		},
		{
			"bufferView":5,
			"componentType":5126,
			"count":2425,
			"type":"VEC3"
		},
		{
			"bufferView":6,
			"componentType":5126,
			"count":2425,
			"type":"VEC2"
		},
		{
			"bufferView":7,
			"componentType":5123,
			"count":13824,
			"type":"SCALAR"
		},
		{
			"bufferView":8,
			"componentType":5126,
			"count":2992,
			"max":[
				1.3452187776565552,
				-0.49820682406425476,
				1.0780410766601562
			],
			"min":[
				-1.3446320295333862,
				-1.0325939655303955,
				-2.0617122650146484
			],
			"type":"VEC3"
		},
		{
			"bufferView":9,
			"componentType":5126,
			"count":2992,
			"type":"VEC3"
		},
		{
			"bufferView":10,
			"componentType":5126,
			"count":2992,
			"type":"VEC2"
		},
		{
			"bufferView":11,
			"componentType":5123,
			"count":16128,
			"type":"SCALAR"
		},
		{
			"bufferView":12,
			"componentType":5126,
			"count":2995,
			"max":[
				1.3452187776565552,
				-0.49820682406425476,
				1.0780410766601562
			],
			"min":[
				-1.3446320295333862,
				-1.0325939655303955,
				-2.0617122650146484
			],
			"type":"VEC3"
		},
		{
			"bufferView":13,
			"componentType":5126,
			"count":2995,
			"type":"VEC3"
		},
		{
			"bufferView":14,
			"componentType":5126,
			"count":2995,
			"type":"VEC2"
		},
		{
			"bufferView":15,
			"componentType":5123,
			"count":16128,
			"type":"SCALAR"
		},
		{
			"bufferView":16,
			"componentType":5126,
			"count":2436,
			"max":[
				1.4527024030685425,
				-0.4982069432735443,
				1.1411292552947998
			],
			"min":[
				-1.4529786109924316,
				-1.0417512655258179,
				-2.1247682571411133
			],
			"type":"VEC3"
		},
		{
			"bufferView":17,
			"componentType":5126,
			"count":2436,
			"type":"VEC3"
		},
		{
			"bufferView":18,
			"componentType":5126,
			"count":2436,
			"type":"VEC2"
		},
		{
			"bufferView":19,
			"componentType":5123,
			"count":13824,
			"type":"SCALAR"
		},
		{
			"bufferView":20,
			"componentType":5126,
			"count":12,
			"max":[
				1,
				0,
				1
			],
			"min":[
				-1,
				-0.03406951203942299,
				-1
			],
			"type":"VEC3"
		},
		{
			"bufferView":21,
			"componentType":5126,
			"count":12,
			"type":"VEC3"
		},
		{
			"bufferView":22,
			"componentType":5126,
			"count":12,
			"type":"VEC2"
		},
		{
			"bufferView":23,
			"componentType":5123,
			"count":36,
			"type":"SCALAR"
		},
		{
			"bufferView":24,
			"componentType":5126,
			"count":418,
			"max":[
				0.8395062685012817,
				-0.002733973553404212,
				0.8395062685012817
			],
			"min":[
				-0.8395062685012817,
				-0.03133554384112358,
				-0.8395062685012817
			],
			"type":"VEC3"
		},
		{
			"bufferView":25,
			"componentType":5126,
			"count":418,
			"type":"VEC3"
		},
		{
			"bufferView":26,
			"componentType":5126,
			"count":418,
			"type":"VEC2"
		},
		{
			"bufferView":27,
			"componentType":5123,
			"count":2304,
			"type":"SCALAR"
		},
		{
			"bufferView":28,
			"componentType":5126,
			"count":418,
			"max":[
				0.8395062685012817,
				0.022705107927322388,
				0.8395062685012817
			],
			"min":[
				-0.8395062685012817,
				0.001980982720851898,
				-0.8395062685012817
			],
			"type":"VEC3"
		},
		{
			"bufferView":29,
			"componentType":5126,
			"count":418,
			"type":"VEC3"
		},
		{
			"bufferView":30,
			"componentType":5126,
			"count":418,
			"type":"VEC2"
		},
		{
			"bufferView":31,
			"componentType":5123,
			"count":2304,
			"type":"SCALAR"
		},
		{
			"bufferView":32,
			"componentType":5126,
			"count":12,
			"max":[
				1,
				0,
				1
			],
			"min":[
				-1,
				-0.03406951203942299,
				-1
			],
			"type":"VEC3"
		},
		{
			"bufferView":33,
			"componentType":5126,
			"count":12,
			"type":"VEC3"
		},
		{
			"bufferView":34,
			"componentType":5126,
			"count":12,
			"type":"VEC2"
		},
		{
			"bufferView":35,
			"componentType":5126,
			"count":418,
			"max":[
				0.8395062685012817,
				-0.002733973553404212,
				0.8395062685012817
			],
			"min":[
				-0.8395062685012817,
				-0.03133554384112358,
				-0.8395062685012817
			],
			"type":"VEC3"
		},
		{
			"bufferView":36,
			"componentType":5126,
			"count":418,
			"type":"VEC3"
		},
		{
			"bufferView":37,
			"componentType":5126,
			"count":418,
			"type":"VEC2"
		},
		{
			"bufferView":38,
			"componentType":5126,
			"count":418,
			"max":[
				0.8395062685012817,
				0.022705107927322388,
				0.8395062685012817
			],
			"min":[
				-0.8395062685012817,
				0.001980982720851898,
				-0.8395062685012817
			],
			"type":"VEC3"
		},
		{
			"bufferView":39,
			"componentType":5126,
			"count":418,
			"type":"VEC3"
		},
		{
			"bufferView":40,
			"componentType":5126,
			"count":418,
			"type":"VEC2"
		},
		{
			"bufferView":41,
			"componentType":5126,
			"count":418,
			"max":[
				0.8395062685012817,
				0.022705107927322388,
				0.8395062685012817
			],
			"min":[
				-0.8395062685012817,
				0.001980982720851898,
				-0.8395062685012817
			],
			"type":"VEC3"
		},
		{
			"bufferView":42,
			"componentType":5126,
			"count":418,
			"type":"VEC3"
		},
		{
			"bufferView":43,
			"componentType":5126,
			"count":418,
			"type":"VEC2"
		}
	],
	"bufferViews":[
		{
			"buffer":0,
			"byteLength":1920,
			"byteOffset":0,
			"target":34962
		},
		{
			"buffer":0,
			"byteLength":1920,
			"byteOffset":1920,
			"target":34962
		},
		{
			"buffer":0,
			"byteLength":1280,
			"byteOffset":3840,
			"target":34962
		},
		{
			"buffer":0,
			"byteLength":564,
			"byteOffset":5120,
			"target":34963
		},
		{
			"buffer":0,
			"byteLength":29100,
			"byteOffset":5684,
			"target":34962
		},
		{
			"buffer":0,
			"byteLength":29100,
			"byteOffset":34784,
			"target":34962
		},
		{
			"buffer":0,
			"byteLength":19400,
			"byteOffset":63884,
			"target":34962
		},
		{
			"buffer":0,
			"byteLength":27648,
			"byteOffset":83284,
			"target":34963
		},
		{
			"buffer":0,
			"byteLength":35904,
			"byteOffset":110932,
			"target":34962
		},
		{
			"buffer":0,
			"byteLength":35904,
			"byteOffset":146836,
			"target":34962
		},
		{
			"buffer":0,
			"byteLength":23936,
			"byteOffset":182740,
			"target":34962
		},
		{
			"buffer":0,
			"byteLength":32256,
			"byteOffset":206676,
			"target":34963
		},
		{
			"buffer":0,
			"byteLength":35940,
			"byteOffset":238932,
			"target":34962
		},
		{
			"buffer":0,
			"byteLength":35940,
			"byteOffset":274872,
			"target":34962
		},
		{
			"buffer":0,
			"byteLength":23960,
			"byteOffset":310812,
			"target":34962
		},
		{
			"buffer":0,
			"byteLength":32256,
			"byteOffset":334772,
			"target":34963
		},
		{
			"buffer":0,
			"byteLength":29232,
			"byteOffset":367028,
			"target":34962
		},
		{
			"buffer":0,
			"byteLength":29232,
			"byteOffset":396260,
			"target":34962
		},
		{
			"buffer":0,
			"byteLength":19488,
			"byteOffset":425492,
			"target":34962
		},
		{
			"buffer":0,
			"byteLength":27648,
			"byteOffset":444980,
			"target":34963
		},
		{
			"buffer":0,
			"byteLength":144,
			"byteOffset":472628,
			"target":34962
		},
		{
			"buffer":0,
			"byteLength":144,
			"byteOffset":472772,
			"target":34962
		},
		{
			"buffer":0,
			"byteLength":96,
			"byteOffset":472916,
			"target":34962
		},
		{
			"buffer":0,
			"byteLength":72,
			"byteOffset":473012,
			"target":34963
		},
		{
			"buffer":0,
			"byteLength":5016,
			"byteOffset":473084,
			"target":34962
		},
		{
			"buffer":0,
			"byteLength":5016,
			"byteOffset":478100,
			"target":34962
		},
		{
			"buffer":0,
			"byteLength":3344,
			"byteOffset":483116,
			"target":34962
		},
		{
			"buffer":0,
			"byteLength":4608,
			"byteOffset":486460,
			"target":34963
		},
		{
			"buffer":0,
			"byteLength":5016,
			"byteOffset":491068,
			"target":34962
		},
		{
			"buffer":0,
			"byteLength":5016,
			"byteOffset":496084,
			"target":34962
		},
		{
			"buffer":0,
			"byteLength":3344,
			"byteOffset":501100,
			"target":34962
		},
		{
			"buffer":0,
			"byteLength":4608,
			"byteOffset":504444,
			"target":34963
		},
		{
			"buffer":0,
			"byteLength":144,
			"byteOffset":509052,
			"target":34962
		},
		{
			"buffer":0,
			"byteLength":144,
			"byteOffset":509196,
			"target":34962
		},
		{
			"buffer":0,
			"byteLength":96,
			"byteOffset":509340,
			"target":34962
		},
		{
			"buffer":0,
			"byteLength":5016,
			"byteOffset":509436,
			"target":34962
		},
		{
			"buffer":0,
			"byteLength":5016,
			"byteOffset":514452,
			"target":34962
		},
		{
			"buffer":0,
			"byteLength":3344,
			"byteOffset":519468,
			"target":34962
		},
		{
			"buffer":0,
			"byteLength":5016,
			"byteOffset":522812,
			"target":34962
		},
		{
			"buffer":0,
			"byteLength":5016,
			"byteOffset":527828,
			"target":34962
		},
		{
			"buffer":0,
			"byteLength":3344,
			"byteOffset":532844,
			"target":34962
		},
		{
			"buffer":0,
			"byteLength":5016,
			"byteOffset":536188,
			"target":34962
		},
		{
			"buffer":0,
			"byteLength":5016,
			"byteOffset":541204,
			"target":34962
		},
		{
			"buffer":0,
			"byteLength":3344,
			"byteOffset":546220,
			"target":34962
		}
	],
	"buffers":[
		{
			"byteLength":549564,
			"uri":"SANDWICH_REVAMPED.bin"
		}
	]
}
