{
	"asset":{
		"generator":"Khronos glTF Blender I/O v4.1.62",
		"version":"2.0"
	},
	"extensionsUsed":[
		"KHR_materials_specular"
	],
	"scene":0,
	"scenes":[
		{
			"name":"Scene",
			"nodes":[
				0
			]
		}
	],
	"nodes":[
		{
			"mesh":0,
			"name":"Sphere.016",
			"rotation":[
				0,
				1,
				0,
				1.9470718370939721e-07
			],
			"scale":[
				0.7028553485870361,
				0.7028553485870361,
				0.7028553485870361
			]
		}
	],
	"materials":[
		{
			"doubleSided":true,
			"extensions":{
				"KHR_materials_specular":{
					"specularFactor":0
				}
			},
			"name":"1texture.012",
			"pbrMetallicRoughness":{
				"metallicFactor":0,
				"roughnessFactor":0.5
			}
		},
		{
			"doubleSided":true,
			"extensions":{
				"KHR_materials_specular":{
					"specularFactor":0
				}
			},
			"name":"1texture.011",
			"pbrMetallicRoughness":{
				"metallicFactor":0,
				"roughnessFactor":0.5
			}
		}
	],
	"meshes":[
		{
			"name":"Sphere.021",
			"primitives":[
				{
					"attributes":{
						"POSITION":0,
						"NORMAL":1,
						"TEXCOORD_0":2
					},
					"indices":3,
					"material":0
				},
				{
					"attributes":{
						"POSITION":4,
						"NORMAL":5,
						"TEXCOORD_0":6
					},
					"indices":7,
					"material":1
				}
			]
		}
	],
	"accessors":[
		{
			"bufferView":0,
			"componentType":5126,
			"count":614,
			"max":[
				0.9848076105117798,
				0.9080802798271179,
				0.9848073720932007
			],
			"min":[
				-0.984807550907135,
				-0.9288820028305054,
				-0.9848077893257141
			],
			"type":"VEC3"
		},
		{
			"bufferView":1,
			"componentType":5126,
			"count":614,
			"type":"VEC3"
		},
		{
			"bufferView":2,
			"componentType":5126,
			"count":614,
			"type":"VEC2"
		},
		{
			"bufferView":3,
			"componentType":5123,
			"count":864,
			"type":"SCALAR"
		},
		{
			"bufferView":4,
			"componentType":5126,
			"count":80,
			"max":[
				0.05464912950992584,
				1.0864839553833008,
				0.004778638482093811
			],
			"min":[
				-0.1525021195411682,
				0.6149184107780457,
				-0.1704414188861847
			],
			"type":"VEC3"
		},
		{
			"bufferView":5,
			"componentType":5126,
			"count":80,
			"type":"VEC3"
		},
		{
			"bufferView":6,
			"componentType":5126,
			"count":80,
			"type":"VEC2"
		},
		{
			"bufferView":7,
			"componentType":5123,
			"count":132,
			"type":"SCALAR"
		}
	],
	"bufferViews":[
		{
			"buffer":0,
			"byteLength":7368,
			"byteOffset":0,
			"target":34962
		},
		{
			"buffer":0,
			"byteLength":7368,
			"byteOffset":7368,
			"target":34962
		},
		{
			"buffer":0,
			"byteLength":4912,
			"byteOffset":14736,
			"target":34962
		},
		{
			"buffer":0,
			"byteLength":1728,
			"byteOffset":19648,
			"target":34963
		},
		{
			"buffer":0,
			"byteLength":960,
			"byteOffset":21376,
			"target":34962
		},
		{
			"buffer":0,
			"byteLength":960,
			"byteOffset":22336,
			"target":34962
		},
		{
			"buffer":0,
			"byteLength":640,
			"byteOffset":23296,
			"target":34962
		},
		{
			"buffer":0,
			"byteLength":264,
			"byteOffset":23936,
			"target":34963
		}
	],
	"buffers":[
		{
			"byteLength":24200,
			"uri":"tomato.bin"
		}
	]
}
